<?xml version="1.0" standalone="no"?>
<!DOCTYPE svg PUBLIC "-//W3C//DTD SVG 20010904//EN"
 "http://www.w3.org/TR/2001/REC-SVG-20010904/DTD/svg10.dtd">
<svg version="1.0" xmlns="http://www.w3.org/2000/svg"
 width="1628.000000pt" height="414.000000pt" viewBox="0 0 1628.000000 414.000000"
 preserveAspectRatio="xMidYMid meet">

<g transform="translate(0.000000,414.000000) scale(0.100000,-0.100000)"
fill="#000000" stroke="none">
<path d="M11860 3221 c-108 -34 -168 -129 -142 -224 8 -30 107 -180 168 -255
l19 -23 79 111 c85 123 106 163 106 210 0 62 -45 137 -100 165 -34 17 -100 25
-130 16z m80 -116 c56 -29 52 -105 -6 -132 -32 -16 -38 -16 -62 -2 -40 22 -56
62 -40 96 12 24 49 52 71 53 4 0 21 -7 37 -15z"/>
<path d="M1500 3134 c-220 -48 -405 -148 -556 -300 -204 -205 -305 -450 -305
-739 0 -296 106 -552 315 -761 179 -179 398 -281 649 -304 99 -8 242 0 330 20
131 29 290 103 410 192 68 51 207 193 207 212 0 6 -56 46 -124 88 l-123 76
-84 -82 c-146 -141 -306 -207 -509 -207 -165 -1 -294 36 -423 121 -226 147
-348 372 -348 641 0 262 126 493 349 640 139 91 261 123 442 116 135 -5 201
-22 315 -79 76 -39 115 -67 190 -139 l60 -58 115 85 c63 46 116 88 118 92 5
15 -106 129 -180 185 -135 102 -287 171 -448 201 -102 20 -310 19 -400 0z"/>
<path d="M3475 2628 c-196 -19 -363 -103 -501 -251 -120 -130 -184 -266 -206
-443 -49 -385 207 -770 577 -870 91 -25 274 -30 369 -10 340 70 593 343 637
686 50 391 -216 778 -596 869 -100 24 -177 29 -280 19z m210 -293 c199 -52
358 -227 384 -423 41 -312 -200 -592 -509 -592 -311 0 -560 288 -511 591 31
197 187 373 372 423 72 19 191 20 264 1z"/>
<path d="M5280 2629 c-121 -21 -251 -109 -310 -212 l-27 -48 -7 32 c-3 17 -6
64 -6 103 0 123 7 116 -136 116 l-124 0 0 -780 0 -780 134 0 134 0 5 463 c4
431 6 467 25 540 28 103 65 169 124 222 64 58 129 79 222 73 90 -6 138 -30
204 -102 57 -63 86 -135 102 -256 5 -41 10 -270 10 -507 l0 -433 140 0 140 0
0 478 c0 507 4 551 50 643 56 108 157 172 283 178 71 3 84 0 143 -29 110 -54
171 -153 193 -314 7 -46 11 -258 11 -517 l0 -439 140 0 140 0 0 439 c0 477 -8
596 -46 729 -31 107 -65 170 -127 238 -85 93 -192 147 -328 165 -210 29 -401
-67 -498 -250 l-33 -63 -34 63 c-39 72 -109 148 -169 184 -96 56 -244 82 -355
64z"/>
<path d="M7853 2629 c-323 -31 -601 -273 -684 -594 -28 -111 -28 -280 1 -390
81 -313 326 -538 646 -595 89 -16 287 -8 369 14 154 43 291 121 394 224 52 53
61 66 50 77 -27 24 -196 125 -210 125 -8 0 -30 -17 -49 -37 -89 -92 -212 -143
-365 -151 -174 -8 -311 43 -426 157 -65 65 -123 163 -131 221 l-3 25 638 3
637 2 0 113 c-1 235 -75 425 -227 581 -167 170 -391 249 -640 225z m269 -288
c167 -64 286 -204 311 -363 l6 -38 -500 0 -500 0 7 38 c32 175 172 328 344
377 81 22 257 15 332 -14z"/>
<path d="M10595 2626 c-302 -60 -458 -238 -424 -483 13 -93 49 -162 116 -223
94 -86 197 -128 473 -190 199 -45 285 -77 338 -126 43 -38 46 -44 46 -90 -1
-144 -119 -219 -344 -218 -173 0 -332 51 -450 145 l-51 40 -95 -88 -96 -88 66
-61 c95 -89 219 -147 416 -195 34 -9 114 -14 210 -14 172 0 256 17 376 77 182
89 275 265 245 464 -14 97 -45 156 -118 225 -95 91 -210 138 -503 204 -284 64
-373 117 -355 214 15 85 90 141 216 162 167 28 411 -36 510 -134 l36 -35 87
87 87 88 -66 61 c-79 72 -194 131 -315 162 -110 28 -306 35 -405 16z"/>
<path d="M9063 2613 l-33 -4 0 -775 0 -774 139 0 140 0 4 438 c4 465 6 486 57
597 34 77 79 128 155 177 73 48 145 69 254 77 l85 6 27 127 c14 70 24 130 21
133 -12 11 -220 4 -280 -10 -111 -26 -224 -98 -283 -179 -17 -25 -36 -43 -40
-40 -5 3 -9 29 -9 58 0 29 -3 81 -6 115 l-7 61 -96 -2 c-53 0 -111 -3 -128 -5z"/>
<path d="M11750 1840 l0 -780 140 0 140 0 0 780 0 780 -140 0 -140 0 0 -780z"/>
<path d="M13000 2560 c-8 -5 -31 -10 -50 -10 -44 0 -158 -44 -235 -90 -82 -49
-166 -130 -217 -209 -59 -91 -64 -100 -95 -188 -26 -73 -28 -88 -28 -248 0
-138 3 -176 16 -200 9 -16 20 -46 24 -65 9 -46 87 -176 142 -239 44 -50 152
-132 208 -158 17 -7 37 -17 45 -22 8 -5 35 -14 60 -21 25 -7 52 -16 61 -20 49
-25 377 -19 413 8 6 5 31 14 56 22 75 22 214 95 235 123 6 8 19 17 30 20 15 3
13 5 -8 6 -16 0 -26 5 -22 11 3 5 12 7 19 4 8 -3 17 -1 21 5 4 7 -5 11 -22 12
l-28 1 30 7 c20 4 26 9 18 14 -7 5 -17 6 -22 2 -5 -3 -12 -1 -16 5 -4 6 5 10
22 10 20 0 24 3 14 9 -11 7 -11 9 0 14 12 5 12 7 0 15 -11 8 -11 10 0 15 8 3
2 6 -13 6 -16 1 -28 6 -28 12 0 6 6 9 13 6 8 -3 20 -1 28 4 10 6 6 9 -16 10
l-30 1 30 8 c29 7 28 9 -15 23 -8 3 -1 6 15 6 22 1 26 4 16 10 -8 5 -20 7 -28
4 -7 -3 -13 0 -13 6 0 6 12 11 28 11 19 0 23 3 13 9 -11 7 -11 9 0 14 8 3 0 6
-18 6 -22 1 -41 -8 -61 -26 -71 -67 -204 -160 -262 -183 -14 -6 -34 -15 -45
-22 -42 -24 -164 -51 -250 -55 -192 -9 -350 83 -435 255 -46 92 -74 260 -65
382 25 331 202 520 484 520 109 0 203 -25 324 -86 83 -42 108 -58 203 -136 65
-53 114 -74 114 -47 0 5 -4 7 -10 4 -5 -3 -18 -1 -27 4 -15 9 -13 11 12 11 26
1 27 3 10 10 -17 7 -17 9 -2 9 9 1 17 6 17 11 0 6 -8 10 -17 11 -15 0 -15 2 2
8 19 8 18 9 -5 13 l-25 5 25 9 25 8 -30 7 -30 7 28 1 c15 0 27 6 27 11 0 6
-12 11 -27 11 l-28 1 30 8 30 8 -30 2 -30 2 30 13 c24 11 26 14 10 15 l-20 1
20 9 c19 8 19 9 -2 9 -13 1 -23 6 -23 11 0 6 10 11 23 11 18 1 16 3 -8 9 l-30
8 28 1 c30 1 29 21 -1 21 -10 0 -22 8 -28 18 -20 32 -192 108 -303 135 -74 17
-279 22 -301 7z"/>
<path d="M13630 2106 c0 -2 7 -6 15 -10 8 -3 15 -1 15 4 0 6 -7 10 -15 10 -8
0 -15 -2 -15 -4z"/>
<path d="M13650 1550 c0 -5 7 -7 15 -4 8 4 15 8 15 10 0 2 -7 4 -15 4 -8 0
-15 -4 -15 -10z"/>
</g>
</svg>
